<mxfile host="65bd71144e">
    <diagram id="2XCkPTeXxCZkE2hD_6fR" name="Page-1">
        <mxGraphModel dx="770" dy="559" grid="1" gridSize="10" guides="1" tooltips="1" connect="1" arrows="1" fold="1" page="1" pageScale="1" pageWidth="850" pageHeight="400" math="0" shadow="0">
            <root>
                <mxCell id="0"/>
                <mxCell id="1" parent="0"/>
                <mxCell id="2" value="Node.js Javascript runtime" style="swimlane;whiteSpace=wrap;html=1;" parent="1" vertex="1">
                    <mxGeometry x="35" y="40" width="780" height="360" as="geometry"/>
                </mxCell>
                <mxCell id="3" value="Javascript Engine" style="swimlane;whiteSpace=wrap;html=1;" parent="2" vertex="1">
                    <mxGeometry x="20" y="50" width="240" height="290" as="geometry"/>
                </mxCell>
                <mxCell id="14" value="HEAP" style="rounded=0;whiteSpace=wrap;html=1;" parent="3" vertex="1">
                    <mxGeometry x="20" y="50" width="90" height="220" as="geometry"/>
                </mxCell>
                <mxCell id="15" value="CALL STACK" style="rounded=0;whiteSpace=wrap;html=1;" parent="3" vertex="1">
                    <mxGeometry x="130" y="50" width="90" height="220" as="geometry"/>
                </mxCell>
                <mxCell id="5" value="Callback queue" style="swimlane;whiteSpace=wrap;html=1;" parent="2" vertex="1">
                    <mxGeometry x="290" y="240" width="300" height="100" as="geometry"/>
                </mxCell>
                <mxCell id="10" value="click" style="rounded=0;whiteSpace=wrap;html=1;" parent="5" vertex="1">
                    <mxGeometry x="15" y="40" width="60" height="30" as="geometry"/>
                </mxCell>
                <mxCell id="11" value="timer" style="rounded=0;whiteSpace=wrap;html=1;" parent="5" vertex="1">
                    <mxGeometry x="95" y="40" width="60" height="30" as="geometry"/>
                </mxCell>
                <mxCell id="12" value="data" style="rounded=0;whiteSpace=wrap;html=1;" parent="5" vertex="1">
                    <mxGeometry x="175" y="40" width="60" height="30" as="geometry"/>
                </mxCell>
                <mxCell id="13" value="..." style="rounded=0;whiteSpace=wrap;html=1;" parent="5" vertex="1">
                    <mxGeometry x="245" y="40" width="40" height="30" as="geometry"/>
                </mxCell>
                <mxCell id="18" value="WEB APIs" style="swimlane;whiteSpace=wrap;html=1;" vertex="1" parent="2">
                    <mxGeometry x="290" y="50" width="300" height="90" as="geometry"/>
                </mxCell>
                <mxCell id="27" value="fetch()" style="rounded=0;whiteSpace=wrap;html=1;" vertex="1" parent="18">
                    <mxGeometry x="15" y="40" width="60" height="30" as="geometry"/>
                </mxCell>
                <mxCell id="28" value="&lt;font style=&quot;font-size: 9px;&quot;&gt;setTimeout()&lt;/font&gt;" style="rounded=0;whiteSpace=wrap;html=1;" vertex="1" parent="18">
                    <mxGeometry x="95" y="40" width="60" height="30" as="geometry"/>
                </mxCell>
                <mxCell id="29" value="DOM()" style="rounded=0;whiteSpace=wrap;html=1;" vertex="1" parent="18">
                    <mxGeometry x="175" y="40" width="60" height="30" as="geometry"/>
                </mxCell>
                <mxCell id="30" value="..." style="rounded=0;whiteSpace=wrap;html=1;" vertex="1" parent="18">
                    <mxGeometry x="245" y="40" width="40" height="30" as="geometry"/>
                </mxCell>
                <mxCell id="23" value="Microtasks queue" style="swimlane;whiteSpace=wrap;html=1;" vertex="1" parent="2">
                    <mxGeometry x="290" y="150" width="300" height="80" as="geometry"/>
                </mxCell>
                <mxCell id="24" value="&lt;b&gt;WEB AP&lt;/b&gt;Is is where the asynchronous tasks are run, such tasks can be fetching APIs, waiting for a response, loading an img, etc." style="text;html=1;strokeColor=none;fillColor=none;align=left;verticalAlign=middle;whiteSpace=wrap;rounded=0;" vertex="1" parent="2">
                    <mxGeometry x="615" y="45" width="145" height="100" as="geometry"/>
                </mxCell>
                <mxCell id="26" value="&lt;b&gt;Microtasks queue&lt;/b&gt; is similar to callback queue, but for callbacks related to promises. Has priority over callback queue!&amp;nbsp;" style="text;html=1;strokeColor=none;fillColor=none;align=left;verticalAlign=middle;whiteSpace=wrap;rounded=0;" vertex="1" parent="2">
                    <mxGeometry x="615" y="160" width="145" height="100" as="geometry"/>
                </mxCell>
            </root>
        </mxGraphModel>
    </diagram>
</mxfile>